<svg width="1283" height="263" viewBox="0 0 1283 263" fill="none" xmlns="http://www.w3.org/2000/svg">
<path d="M610.093 137.175C610.093 156.355 603.205 172.735 589.44 186.327C575.665 199.918 559.065 206.702 539.637 206.702C520.197 206.702 503.597 199.906 489.835 186.327C476.06 172.747 469.185 156.355 469.185 137.175C469.185 117.994 476.072 101.614 489.835 88.0343C503.61 74.4545 520.21 67.6588 539.637 67.6588C559.077 67.6588 575.678 74.4545 589.44 88.0343C603.205 101.614 610.093 117.994 610.093 137.175ZM539.625 81.5523C524.065 81.5523 510.778 86.984 499.768 97.8478C488.758 108.712 483.252 121.82 483.252 137.175C483.252 152.529 488.758 165.637 499.768 176.501C510.778 187.365 524.065 192.797 539.625 192.797C555.187 192.797 568.473 187.365 579.483 176.501C590.493 165.637 595.998 152.529 595.998 137.175C595.998 121.82 590.493 108.712 579.483 97.8478C568.473 86.984 555.187 81.5523 539.625 81.5523Z" fill="white"/>
<path d="M638.28 241.461C638.28 243.368 637.595 245.009 636.212 246.373C634.83 247.737 633.177 248.413 631.232 248.413C629.3 248.413 627.637 247.737 626.255 246.373C624.872 245.009 624.188 243.38 624.188 241.461V158.027C624.188 144.592 628.995 133.113 638.635 123.613C648.262 114.114 659.897 109.358 673.512 109.358C687.14 109.358 698.762 114.114 708.39 123.613C718.02 133.113 722.84 144.592 722.84 158.027C722.84 171.474 718.02 182.941 708.39 192.441C698.762 201.941 687.13 206.697 673.512 206.697C659.897 206.697 648.262 201.941 638.635 192.441C638.512 192.32 638.402 192.212 638.28 192.091V241.461ZM638.28 158.027C638.28 167.648 641.717 175.844 648.58 182.627C655.455 189.411 663.762 192.791 673.512 192.791C683.262 192.791 691.57 189.399 698.445 182.627C705.32 175.844 708.745 167.648 708.745 158.027C708.745 148.407 705.308 140.211 698.445 133.427C691.57 126.643 683.262 123.263 673.512 123.263C663.762 123.263 655.455 126.655 648.58 133.427C641.705 140.211 638.28 148.407 638.28 158.027Z" fill="white"/>
<path d="M786.24 192.796C788.173 192.796 789.838 193.472 791.22 194.836C792.603 196.2 793.288 197.83 793.288 199.749C793.288 201.668 792.603 203.298 791.22 204.662C789.838 206.026 788.185 206.702 786.24 206.702C762.75 206.702 751.008 195.114 751.008 171.938V123.269H743.96C742.028 123.269 740.363 122.593 738.98 121.229C737.598 119.865 736.913 118.235 736.913 116.316C736.913 114.409 737.598 112.767 738.98 111.403C740.363 110.039 742.015 109.363 743.96 109.363H751.008V74.5992C751.008 72.692 751.693 71.0505 753.075 69.6865C754.458 68.3225 756.108 67.6465 758.053 67.6465C759.998 67.6465 761.65 68.3225 763.033 69.6865C764.415 71.0505 765.1 72.68 765.1 74.5992V109.363H779.28C781.213 109.363 782.875 110.039 784.258 111.403C785.64 112.767 786.325 114.396 786.325 116.316C786.325 118.223 785.64 119.865 784.258 121.229C782.875 122.593 781.225 123.269 779.28 123.269H765.1V171.938C765.1 185.843 772.148 192.796 786.24 192.796Z" fill="white"/>
<path d="M830.295 88.5067C830.295 90.8845 829.425 92.9245 827.7 94.6387C825.963 96.3527 823.895 97.1978 821.485 97.1978C819.075 97.1978 817.008 96.3405 815.273 94.6387C813.535 92.9245 812.678 90.8845 812.678 88.5067C812.678 86.1287 813.548 84.0888 815.273 82.3748C817.008 80.6728 819.075 79.8158 821.485 79.8158C823.895 79.8158 825.963 80.6728 827.7 82.3748C829.425 84.0888 830.295 86.1287 830.295 88.5067ZM814.44 116.318C814.44 114.41 815.125 112.769 816.508 111.405C817.89 110.041 819.54 109.365 821.485 109.365C823.42 109.365 825.083 110.041 826.465 111.405C827.848 112.769 828.533 114.398 828.533 116.318V199.751C828.533 201.658 827.848 203.3 826.465 204.664C825.083 206.028 823.43 206.704 821.485 206.704C819.553 206.704 817.89 206.028 816.508 204.664C815.125 203.3 814.44 201.67 814.44 199.751V116.318Z" fill="white"/>
<path d="M864.993 125.091C858.703 117.789 855.95 109.327 856.71 99.7188C857.53 90.1588 861.64 82.2765 869.04 76.0843C875.672 70.4593 883.305 67.6588 891.943 67.6588C902.158 67.6588 911.088 71.799 918.723 80.0918C920.008 81.6005 921.155 83.1575 922.16 84.7873C922.87 85.8855 923.212 87.129 923.212 88.5293C923.212 90.4363 922.528 92.078 921.145 93.442C919.763 94.806 918.11 95.482 916.165 95.482C913.925 95.482 912.288 94.7817 911.235 93.3937C910.183 92.0055 909.095 90.5813 907.98 89.1328C904.163 84.7268 899.38 82.3005 893.618 81.8298C887.808 81.3713 882.67 83.0008 878.205 86.7425C873.738 90.4845 871.28 95.1923 870.803 100.866C870.338 106.599 872.003 111.669 875.818 116.075C878.925 119.032 883.978 121.41 890.963 123.197C903.235 125.864 912.567 130.789 918.977 137.971C925.61 145.733 928.938 154.544 928.938 164.394C928.938 165.722 928.875 167.062 928.765 168.389C927.823 179.857 922.918 189.308 914.06 196.72C906.133 203.383 897.117 206.714 887.025 206.714C874.4 206.714 863.535 201.789 854.433 191.94C853.198 190.612 852.085 189.188 851.083 187.679C850.14 186.46 849.675 185.071 849.675 183.502C849.675 181.595 850.36 179.953 851.743 178.589C853.125 177.225 854.778 176.549 856.723 176.549C859.243 176.549 861.247 177.624 862.715 179.76C863.425 180.859 864.245 181.909 865.188 182.887C870.178 188.801 876.578 192.073 884.395 192.712C892.15 193.292 898.99 191.107 904.923 186.146C910.855 181.197 914.135 174.896 914.783 167.243C915.43 159.542 913.253 152.758 908.263 146.903C903.92 142.099 897.13 138.502 887.918 136.124C878.963 134.567 871.328 130.885 864.993 125.091Z" fill="white"/>
<path d="M965.93 88.5067C965.93 90.8845 965.06 92.9245 963.335 94.6387C961.598 96.3527 959.53 97.1978 957.12 97.1978C954.71 97.1978 952.642 96.3405 950.905 94.6387C949.17 92.9245 948.312 90.8845 948.312 88.5067C948.312 86.1287 949.18 84.0888 950.905 82.3748C952.642 80.6728 954.71 79.8158 957.12 79.8158C959.53 79.8158 961.598 80.6728 963.335 82.3748C965.06 84.0888 965.93 86.1287 965.93 88.5067ZM950.075 116.318C950.075 114.41 950.76 112.769 952.143 111.405C953.525 110.041 955.175 109.365 957.12 109.365C959.065 109.365 960.718 110.041 962.1 111.405C963.483 112.769 964.168 114.398 964.168 116.318V199.751C964.168 201.658 963.483 203.3 962.1 204.664C960.718 206.028 959.065 206.704 957.12 206.704C955.175 206.704 953.525 206.028 952.143 204.664C950.76 203.3 950.075 201.67 950.075 199.751V116.318Z" fill="white"/>
<path d="M1069.87 192.091C1069.75 192.212 1069.64 192.32 1069.51 192.441C1059.88 201.941 1048.25 206.697 1034.64 206.697C1021.02 206.697 1009.39 201.941 999.758 192.441C990.13 182.941 985.31 171.462 985.31 158.027C985.31 144.592 990.13 133.113 999.758 123.613C1009.39 114.114 1021.02 109.358 1034.64 109.358C1048.25 109.358 1059.88 114.114 1069.51 123.613C1079.14 133.113 1083.96 144.592 1083.96 158.027V206.697C1083.96 216.836 1080.27 225.648 1072.87 233.12C1062.53 243.319 1050.05 248.413 1035.43 248.413C1020.81 248.413 1008.36 243.319 998.083 233.12C994.265 229.414 991.145 225.382 988.748 221.037C988.038 219.999 987.695 218.78 987.695 217.391C987.695 215.484 988.38 213.843 989.762 212.479C991.145 211.115 992.798 210.439 994.743 210.439C996.675 210.439 998.35 211.102 999.758 212.442C1000.35 213.082 1000.85 213.77 1001.25 214.531C1003.01 217.657 1005.27 220.59 1008.03 223.306C1015.6 230.778 1024.73 234.52 1035.42 234.52C1046.11 234.52 1055.24 230.778 1062.81 223.306C1067.51 217.741 1069.86 212.213 1069.86 206.709V192.091H1069.87ZM1034.64 123.263C1024.89 123.263 1016.58 126.655 1009.7 133.427C1002.83 140.211 999.403 148.407 999.403 158.027C999.403 167.648 1002.84 175.844 1009.7 182.627C1016.58 189.411 1024.89 192.791 1034.64 192.791C1044.39 192.791 1052.69 189.399 1059.57 182.627C1066.44 175.844 1069.87 167.648 1069.87 158.027C1069.87 148.407 1066.43 140.211 1059.57 133.427C1052.69 126.655 1044.39 123.263 1034.64 123.263Z" fill="white"/>
<path d="M1098.05 116.31C1098.05 114.403 1098.74 112.762 1100.12 111.398C1101.5 110.034 1103.15 109.358 1105.1 109.358C1107.04 109.358 1108.69 110.034 1110.08 111.398C1111.46 112.762 1112.14 114.391 1112.14 116.31V121.96C1120.95 113.558 1131.52 109.358 1143.85 109.358C1156.48 109.358 1167.27 113.776 1176.22 122.611C1185.18 131.447 1189.66 142.094 1189.66 154.551V199.744C1189.66 201.651 1188.97 203.293 1187.59 204.657C1186.21 206.021 1184.55 206.697 1182.61 206.697C1180.66 206.697 1179.01 206.021 1177.63 204.657C1176.25 203.293 1175.56 201.663 1175.56 199.744V154.551C1175.56 145.92 1172.47 138.545 1166.27 132.437C1160.06 126.329 1152.6 123.263 1143.85 123.263C1135.11 123.263 1127.63 126.317 1121.44 132.437C1115.25 138.557 1112.14 145.92 1112.14 154.551V199.744C1112.14 201.651 1111.46 203.293 1110.08 204.657C1108.69 206.021 1107.04 206.697 1105.1 206.697C1103.15 206.697 1101.5 206.021 1100.12 204.657C1098.74 203.293 1098.05 201.663 1098.05 199.744V116.31Z" fill="white"/>
<path d="M1221.19 158.038C1215.84 156.071 1212.11 154.019 1210.01 151.87C1205.84 147.814 1203.76 142.914 1203.76 137.18C1203.76 131.446 1205.93 126.437 1210.28 122.152C1218.73 113.63 1229.76 109.381 1243.39 109.381C1258.13 109.381 1270.76 115.199 1281.27 126.847C1282.21 127.946 1282.65 129.31 1282.59 130.927C1282.59 132.835 1281.9 134.476 1280.52 135.84C1279.14 137.204 1277.49 137.88 1275.54 137.88C1273.6 137.88 1272.04 137.277 1270.87 136.057C1269.7 134.838 1268.84 133.969 1268.31 133.45C1261.44 126.666 1253.13 123.287 1243.38 123.287C1233.63 123.287 1225.85 126.304 1220.04 132.328C1218.63 134.005 1217.92 136.009 1217.92 138.327C1218.09 141.055 1219.54 142.902 1222.24 143.891L1265.57 158.063C1270.92 160.03 1274.65 162.094 1276.75 164.231C1280.93 168.286 1283.01 173.187 1283.01 178.921C1283.01 184.655 1280.83 189.664 1276.48 193.961C1268.03 202.471 1256.98 206.732 1243.37 206.732C1228.57 206.732 1215.94 200.914 1205.49 189.266C1204.61 188.046 1204.17 186.694 1204.17 185.186C1204.17 183.278 1204.86 181.637 1206.24 180.273C1207.62 178.909 1209.27 178.233 1211.22 178.233C1213.16 178.233 1214.72 178.836 1215.89 180.056C1217.07 181.275 1217.92 182.144 1218.45 182.663C1225.32 189.447 1233.63 192.826 1243.38 192.826C1253.13 192.826 1260.91 189.809 1266.72 183.785C1268.13 182.108 1268.84 180.104 1268.84 177.786C1268.67 175.058 1267.22 173.211 1264.52 172.222L1221.19 158.038Z" fill="white"/>
<path d="M323.519 124.127C318.744 122.556 317.714 120.648 317.07 115.741C313.875 91.4574 301.87 75.5126 281.384 65.9625C266.054 58.8119 244.979 57.1801 228.249 63.4909L227.985 63.0831C227.387 62.1592 226.884 61.3914 226.406 60.6355C209.233 33.3048 180.104 17 148.487 17C134.988 17 121.896 19.9875 109.594 25.8903C77.9164 41.0793 59.7861 67.2942 55.7052 103.815C55.3223 107.21 54.4487 108.386 51.4569 109.49C14.8851 122.999 -5.6985 159.652 1.3861 198.633C4.56939 216.161 14.2389 232.37 28.5875 244.272C42.9601 256.185 60.8153 262.76 78.8499 262.784L148.894 263C162.082 263 172.338 252.562 172.338 239.353L172.433 210.93H114.632V175.933H114.68V117.277H255.259L255.246 210.918H197.565L197.529 239.341C197.529 252.562 208.527 262.196 221.715 262.196C221.715 262.196 276.895 262.652 291.172 262.544C301.571 262.472 312.845 260.384 323.771 256.509C352.407 246.359 370.55 220.54 369.987 190.75C369.427 160.348 350.314 132.957 323.519 124.127ZM317.667 245.963C309.087 248.603 299.742 250.055 290.646 250.187C277.947 250.367 259.841 250.462 242.49 250.475V250.426H221.451C215.36 250.426 210.394 245.448 210.394 239.341V223.912H250.676V223.996H260.632C266.017 223.996 268.53 221.488 268.53 216.089C268.53 181.428 268.53 146.767 268.53 112.106C268.53 106.37 266.172 104.031 260.38 104.031H109.642C103.849 104.031 101.492 106.37 101.492 112.106V215.861C101.492 221.572 103.921 224.008 109.618 224.008L159.509 223.936V239.353C159.509 245.472 154.542 250.439 148.451 250.439H135.18V250.414H119.515C106.41 250.414 93.3062 250.414 80.2023 250.403C46.9094 250.391 18.1282 226.767 13.2336 195.453C7.75268 160.324 26.3617 129.598 59.5466 118.992C65.0278 117.24 67.2297 114.277 67.3734 108.434C68.2828 72.7773 94.1081 40.5394 128.777 31.7931C135.251 30.1614 141.893 29.3336 148.499 29.3336C177.065 29.3336 203.788 44.9785 218.232 70.1736C220.051 73.3291 221.918 76.6044 226.082 76.6044C227.411 76.6044 228.859 76.2685 230.522 75.5605C237.272 72.7171 244.261 71.2774 251.298 71.2774C275.841 71.2774 301.932 92.7294 304.766 114.685C306.418 127.45 310.69 132.813 322.346 136.737C343.516 143.875 358.81 168.531 357.913 194.073C357.064 217.973 340.897 238.837 317.667 245.963Z" fill="#20CE88"/>
<path d="M214.325 150.93C211.464 145.123 207.132 140.516 201.424 137.24C200.658 136.797 199.808 136.568 198.959 136.568C196.673 136.568 194.746 138.14 194.28 140.396C193.825 142.603 194.734 144.403 197.068 145.891C205.852 151.494 209.837 161.248 207.444 171.338C205.014 181.572 195.56 188.986 184.969 188.986C183.725 188.986 182.468 188.878 181.235 188.674C173.624 187.403 167.365 182.663 164.062 175.669C160.747 168.662 161.059 160.792 164.912 154.073C166.851 150.678 169.687 147.846 173.588 145.411C175.838 144.007 176.484 141.116 175.072 138.848C174.187 137.408 172.619 136.52 170.991 136.52C170.082 136.52 169.196 136.797 168.431 137.324L168 137.624C165.786 139.16 163.488 140.744 161.597 142.699C153.914 150.654 150.886 160.132 152.61 170.882C155.183 186.935 168.371 198.584 184 198.584H184.179C192.126 198.584 198.528 196.581 204.356 192.274C212.757 186.059 217.292 177.456 217.855 166.671C218.094 161.512 216.909 156.197 214.325 150.93Z" fill="#20CE88"/>
<path d="M179.943 149.316C179.931 151.859 179.919 154.403 179.967 156.934C180.014 159.862 182.264 162.237 184.969 162.237H184.981C187.674 162.225 189.971 159.85 189.995 157.042C190.055 149.544 190.055 142.213 189.995 135.29C189.971 132.459 187.721 130.143 184.969 130.143C182.228 130.143 180.027 132.411 179.979 135.302C179.931 137.822 179.943 140.377 179.955 142.849C179.955 143.725 179.967 144.589 179.967 145.464V146.064C179.955 147.144 179.943 148.236 179.943 149.316Z" fill="#20CE88"/>
</svg>
